<mxfile host="app.diagrams.net" agent="Mozilla/5.0 (X11; Linux x86_64) AppleWebKit/537.36 (KHTML, like Gecko) Chrome/126.0.0.0 Safari/537.36" version="24.9.2">
  <diagram name="Page-1" id="YzLi_REuIRA-mXuIjSeg">
    <mxGraphModel dx="1434" dy="773" grid="1" gridSize="10" guides="1" tooltips="1" connect="1" arrows="1" fold="1" page="1" pageScale="1" pageWidth="850" pageHeight="1100" math="0" shadow="0">
      <root>
        <mxCell id="0" />
        <mxCell id="1" parent="0" />
        <mxCell id="X58mp4_10XXgnkm5bK8M-2" value="" style="sketch=0;points=[[0,0,0],[0.25,0,0],[0.5,0,0],[0.75,0,0],[1,0,0],[0,1,0],[0.25,1,0],[0.5,1,0],[0.75,1,0],[1,1,0],[0,0.25,0],[0,0.5,0],[0,0.75,0],[1,0.25,0],[1,0.5,0],[1,0.75,0]];outlineConnect=0;fontColor=#232F3E;fillColor=#7AA116;strokeColor=#ffffff;dashed=0;verticalLabelPosition=bottom;verticalAlign=top;align=center;html=1;fontSize=12;fontStyle=0;aspect=fixed;shape=mxgraph.aws4.resourceIcon;resIcon=mxgraph.aws4.s3;" vertex="1" parent="1">
          <mxGeometry x="270" y="320" width="78" height="78" as="geometry" />
        </mxCell>
        <mxCell id="X58mp4_10XXgnkm5bK8M-3" value="" style="sketch=0;points=[[0,0,0],[0.25,0,0],[0.5,0,0],[0.75,0,0],[1,0,0],[0,1,0],[0.25,1,0],[0.5,1,0],[0.75,1,0],[1,1,0],[0,0.25,0],[0,0.5,0],[0,0.75,0],[1,0.25,0],[1,0.5,0],[1,0.75,0]];outlineConnect=0;fontColor=#232F3E;fillColor=#C925D1;strokeColor=#ffffff;dashed=0;verticalLabelPosition=bottom;verticalAlign=top;align=center;html=1;fontSize=12;fontStyle=0;aspect=fixed;shape=mxgraph.aws4.resourceIcon;resIcon=mxgraph.aws4.database;" vertex="1" parent="1">
          <mxGeometry x="590" y="325" width="78" height="78" as="geometry" />
        </mxCell>
        <mxCell id="X58mp4_10XXgnkm5bK8M-4" value="" style="shape=image;imageAspect=0;aspect=fixed;verticalLabelPosition=bottom;verticalAlign=top;image=data:image/webp,UklGRsBaAABXRUJQVlA4WAoAAAAYAAAAWwMAWwMAQUxQSBomAAAB8AcA1LIn/f+dZz1WTLq7Q3kNAxi+QDomoQMTX9ZsQYzZDgOHRat7Ib5gKOgMyp6F0owSRo/uBWxjvT3n9Q5ku5/rPudch38iwhckSZYkSbJFzPxVVf1+hJt6uJL/wv8l5sM9RYh5eXlnsrKydmZkZPyanv5jWlraopSUlHeTk5MTExMfTbg7Pn7wwD4xV7VuXTc6FC6bJHSeF32Qqry8I1m7Mjalpy9N+yQlJfnVxIfvix858OrurRvU1n36LT6OVXtnd71oq9C8lOYd2ZfxZ/oXn6a8+2bixIRbxgy8pmOjMBWn9lcX/1/e3JD/4wN0TSpzs7b8vmLR3DcTH7h1RGz3ltEefab+dvyb/Pq/7eZFFyf/WObaH9JS3n7xsduHXduujkd9qfO3Q/wQYA5Sktz9G777ZFbS43cM69m8lsISveVST0Kugr1IVi4c3vDtwneeuTuuV9sIHSVqA14qcz2VSGKKD61d9v4rD47q1SJEL4lYg5ck078Kqc353as+m/n0Hde3C1VGav1WnR/44DjSndwd382fkjDyyvo6eDb9c7WOnuETZCClWb8tnHLvoA4hikfQN1gdyuB65CSnN301feKYmHr6RuDyaj4EBEhDhlKw7eu3HxrSLlDN8P8Mq8c5gKhtyFYqD/0y79lxPa/Qry3GapINAPW2IXfJy0hLnhATplb4LcLqcvL/HWRvQB6TtzolMb6LvzrhScFqcwQuKqMp+euLpPjOgYq097H6ZMH/S/hvyG0qslYmT4gJ0aDNxhqwBy7q78hyyrZ/9uLYtn6qQzLWhJ1/816Rn5DvlGWmTowNUxrewBqxFS5O8HJkPidXJsW1VhemYM3YCH/XlSiAnPlp2i1tFIUnsYas/ft3jHyJQkj+6pkTWqkIk7CmrLrEwfaiv0cCP5rWUw4exxrzM1yywsj+xU9cF6gW3OutOT9c8n0j81EeKc+YGV9XI/hXFdacldU5g5NJslITunh0gQlV6ABL4dKdhWLJ2WVP9wlSA26uQCdIg2rkdZRMilYnDwzSAMY6M/y0midxwsmF9MTYQMtnaCk6w0KoVhJRPilMT4zxs3cGl6BDfATVy3MoomR/mdDczhno2PCDar+LxItCSlZKXIh1E1uIjjEbqpsHxVTE4vTEGKumVwE6x3tQ7dxfhZLKwZT4KFvm2nx0kGlQ/dwjqyKWpj/a3Ia5Khed5A2oQW6pQHElMznWY7l0z0FHSYKaZFw5CiyHU+ICLZYOp9FZXoQaZWQpiiy5qfERlkr7k+gwiVCzxAmtiEVLbwu3UNqeQKd5EmqYIcUotpSsnBBmmTQ/hI7zKNQ0/yxEwaUoLS7IImmWhc5zP9Q4fQtQdMlLjQuwRBrsRh8wAWqePvkovJyYfq0VCmtkoi8YDw4kJgfFlz1JzW2PejvRJ4wCJ9IjG+WXqvT4IKszGNqMvmEoOJLOp1CCyUvpYW1EbUIf0R+cSccTKMNkJta1MiI3oK/o7di7TI6jEFPy6Q0e66LWKvQZMeBUWh5EMWZvYm3L2q/oO7o6eBx+AOWYgpSuFkXwd+hD2jp5IL4PJZnV8QH25ILiS5qBg2m4E0WZE0l1LckFxafUB7kXSz7uYUMuKL4lyuFj8W0ozayOs5x9ij4mxOmD8Q0ozmyd4G81Lii+xuP40fg6lGeyJobYiwuKrykDxxP2Gwo0p5NqW8nmGnDEAz7oLyjRFMxsbB+8jb4n2ycH5Oko0hTPbGAdLigGcNw3R+TLUaYpmlnfLlxQTOCAjw7Jl6JQU5gcZQ0kGfLbFr46Jv8SpZqcxFBbcEExgy0+O81LRbHmbGKIFbigGMI68FkXoFxzJCFA+jyGpvC7Dw/L56NgkzlY+i4oxvAD+C6eWSjZpHeWvQuKMSwHX3a6aFs+M0rqjKtEc0gDn+Z1FG1yJvpL3QXFIBaBbzMFZZvNfQXOmHI0iY/Ax0lE4WZlS4G7oBjFXPB1npNui14IlLYLilm8Az7PZC8KN/tukLQLSjEaxhTwfR6skm69qXWlTJ9CNI1EMCAPiLd4eryYXVCM41EwIbdVonjzTRMB8488NI97wIjcUiHfnkuQsAuKgYwHMzJewMXljcTrgmIicWBIRpYKuOdukywdTqGRmPNkeVgJCjhp0WKl3Uk0k+vAmAwplnAPXy9VF5TjaCjdwJwMKJJwK18LEKoLiqm0NsrDsgAlnPUtReqCYiwNwaT0zhdxs0cK1AXFXAwTNbvmnIjrfTtQmi4oBuMPZqVHNoo4qxsLkno7jBZQBdPS6aSMe7a/IF1QzNZ3BOPS8YSMW5EoRxcUozlm4tH6cZRxUkNE6IKy3nR5LDAwLQ8KuesaStAFxfiPWTHzDPCAkHs8RoAuKKbzp6GngPuE3AtjxOeCYjw/gJlpvFvIrXpKcgStRPP52tiTwL9QyJnlJzkXFBewCExN9CYpd2mo3FxQ3ECKwaeBG6TcdXWl5oLiCt4Dg7teyt3ZSGD4paI7eB0MTtivUu6hNuLC8yG6hOfMPrj4Wco92VVeLihuYSKY3Z+k3NxrZMVb6BruA7MT8p2Ue66XpHgT3cNtxp8MLpVyLwzgFTKvgRxl/tngl2JunJxcUNzEIBccYaRKuUXjpOSC4iquARd0gZRbeo+MXFDcRQeXPGsVcsonScgFxWU0Ald0lpRbkSQd7vG6jVrgjk6Xcqvek44Liuv+J9Y9T1zF3NnCcUFxG7lueuYq5cwXjQuK6zgI7kmimPuJXFxQ3CjFDi7K02LuF2JxQXEhq8BNmeyVclcKxQXFjawAV+WBKin3e5G4oLiSReCu3C/m/ioQFxR3MhdcltsqpNzV4nBBcSlTwW25Rczd6JGFC4pbeRZcl/hyKXerRxIuKK7lIXBfRpZKuZn+cnBBcS+3gwszrETK3RsgBRcUFzMS3JghxVLugSAZuKC4GZc6iFxfKOUeCZWAC4qruRLcmdgCKfdEGP8uKO7GtQIiPfPE/GmkEazTNAtdzhXg1sTkSLlna/PuguJ2Alx83JEt5ebUYdwFxf2fpgcuTqeTUm5efbZdUAh4kQ1uTscTUm5+I5apnYHuZze4Ou2PSbmFLTh2QdlIgqgcOBmLE+DAorYcu6BQwE+uP/g4IOWWdGKWWr/L4DMdmu0Tc7tw64JCAx8RcPixU8ot6yEMFxR6bjC3PQGO8us4dUGhgleAgERvEnP7cLnlSAaTwMnYnwBHRT8W8V+CdHAnEYcga6XcyqE8uqAQwgigIWG/irkjOHRBoQRnr5W3QgGOqrH8uaCQQnsgoz9Jud5bedtcpIW6hByGLBdz72bNBYWaf4cDKHlm+7WY+yBjLijkaLwAJQn8Usx91HWwfSPqAWKe26ailPMUTyQR9GnlQEz/I+Y+zxGTkR5+IOgBk5TzCkcuKASxGMjpLDH3TXZcULwUMRvo6XQxdwY7LigUMQUIymti7mxOuKsKSYIm8aQkMXceVy4oRL/93kIFOBZxwU0VSBTDgKY8LeYuYcMFhSp6AlF5WM4CHOy5oBB6e4pSCnAMKkG6CAOycp+Yu4p6BhQjXRSDo1FJAY4+haTdFQqUZbyYu4F4FxTKyABHo5ACHD3yGHkJbbECHH/50+2CQhup4GhsVoBjdwDVLijE8S44GssV4GDNBYVGiShlFOBodwLJ416gL7H5SiHA0fY40seNQGB65qqEAEfzQ0ggvWm07tMIAY6mWUgh7Yh8xpst5ebWJZPG+5FEosHJKKIAR/1MIr9MkgecjB4KcNTdgTRyGByNJQtwNGfDBYVcqQ0tFOCI2ohUsszZp71KKMAR9geSyYfgaOxZgKMrdS4odJIEpKbBDgUQ4Aj9FX0Akd7kGijAEfQtUspYcDRWLcDRmy4XFFLpDdSm9nqrF+AIXI600hocjfoJcPgvQWKpBY5G+wQ4/D8h96014GyUT4DDM4/e7wkCNPdHKxfg8Hwo5c9yDRK0AIfsrgj+HJyt6glwzESCmQVUJ+AT2xbgeBMpJhHIjn+qmDuRChcUkrkDHK2tC3C8SAGvIM30B0ejdwIck9FBCPfKUzsBjklINeFAe6eLudPdzf1eqjkPzkbpBDjuqUKq2QnORucEOO6qQrL5EZyNyglwjKtEuvkYGMjTYu4XrnVBIZzXgIM85JVyl7mR0eVIOU770lq/AMd3rnRBIZ04cDbqJsAxqARp5x/gaNRNgKPvBSSeBuBotE2Aow/5VwCX+wEbudk+BTh6FyD1HAFGMsI2BTh65CH5/AHORtUEOK7MZcE2k5UMtkkBjm7ZyABvAC+5vkDKPRjsBhcUDkgAZ6MIAhzHw8x3QWGBoeBs1EyAo8Vh5IFO4Gy0TICj+UFkgnBwNkomwNE0C5kgBxyOjglwNNiNXLAZWEoHuxPgqJ+JbLDUYVRMgKPuDla+vw5TaZElZgGONia6oDDCZIfRCAGOovbmuaBwwk1sAY0yxSzA0cU0FxRWuNph1EuAI+xP5IUGjAH1t1uXAEcoN7dnF3o4A6I3WpYAR9C3yAzbweEohgCHWS4obB+rKYYAxxATXFCWITu86zSaJcDhvwT54RH2gFrpYhbgGON7FxSGGMYfEGpHAhyefyNHdGAQCFpmQQIcng94+gkiGFjs13KuMG7LPgo8xt96BDimIU/8Dlx2IUo5T/mGqcgU851GqQQ4XmPMBYTNeObYiwDHy8gWtwGjnWkrAhyTkS+udRqNEuCYiIxRz2H0RIDDOBcUJnVRFEqA454qZIyN3AKJYm6qgy4onLGIXeApMXeJM8RXIGu85DSqIsDxtUMuKLwxnmEgwR4EOEaXI3Nc5TS6JMAxhL07sb3hTqMtAhx/1tgFhTuOgdPRJAGOvheQPX5xHEUS4OhdiPzxPtvAiBIpd7t/NbmuABlkktPokQBHjzzkkOGMA/0KBS/AcWUuskgbp1EaAY4jIdVwQWHy4osA1oHYfKG3wynkkV3gdHRIgKP9SWSSpY6jQgIcLQ4jl7zuOBokwNHsILLJrU6jQQIcTQ8gn3QXANDhuKgFOBrs4vQ6mRCnUR4BjoImUC8TGWUPyCBtDou5Hf/i9VdSnUd77FLKkFVekwLQdB8qVG4RA9Bol0LRXQ5A/e3qREWwIIDWZdrEHkmsXg5qE19JYudQnXhVDkTlXMb6K8PPoELRVQqEndKolQQIgZBjqFFsEsKCDqFKMU8GBOxHneJREeC/G5WKWAng2aZV80ZKYJtRq9gvgW1EteJLAfAr6hUv8c/PqFjEsc+PqFk0455lqrUc7vcZqhY/M88C1C3e5Z2PULm4jXXmoHbRjnPeUa+d9zDOVFQv0hlfEuoXU/nmWVQwxrDNE6hhNOWah7waximud4+KDVcwzQQdG77EtFGekg2HssyoKlQy6nFMnJrtIMcbrGbDzxnmn5WoZjzNL30qUM/ozS7XatpKQ7ilRxkqGqu5XedS1DSmMUu7ElQ1bmRWE6pY1+atxyoti1DX2MPqmhSisjGfVYeh86ht3MModc+hutGBVRcUdSPbwyYRZ1DfWM7mQk+gwvEMoy4oGkdfPl1QNI5iJk0oA/ahyvEzky4ou1DneIFF/Hag0tGbSRcUpaMoiEcXFK3jB2CQ31DtSGSQX1DvuIZDFxS9oyCAPZaj4rGSQRcUzWMyd6Si6tGDOebr3s75c+eConss5W3vovLxEHMuKNpHa2ZdUC4ffSLic6h+zGDNBUX/GMYXD3v1j5JabJGggMPvOXNBUUAmccWtKjjsyBSjq1Rwh/hyQVFB3ueJIUo4HMWVC4oOUh7JEb0qUAn5hSkXFC3kcZ5cUNSQViy5oKghW1hyQdFDXuHIBUURuZIhFxRF5DA3a1SAmsh0flxQVJF+7LigqCK5Ady4oOgiC7hxQVFGxnBCrRPauOIwXlxQtJEVvLigqCN3MOKCsl8fVxLJhwvKXtRH0jhxQVFIbmJj2zRyBaF8uKBoJKl8uKCoJMOZ4GedXF4QFy4oOkkKFy4oSkl/JlxQlJJT/hywALWSGTy4oKglvRhgrl5ur4cDFxS95Fn697pirrIp+byKisk35O951Exuot8FRTPJCSaex1A1mUH8HvDqJlfRzj3Kuc20b7xyDh8lnXHaubK6xLugKCefU77h6jkcTDj9KtVz+zx007cC1ZPHSNesUU8Ko+h2QSlH/WQO2etehgpKV6ppX6Kh+5lwzRoNZTTRNL+gojviT7QLSiGqKM/SvIYFOrrS+lS7oOgo/6HaBUVJiaGYyGwt3U9Eu6BoKQModkE5rqbb6qGX4COoptxMsAvKAT3dAX96XVB2oZ5yP73CGjsVdadCCHZBUVSeJtcFZZOmLj+KWv5ATeUNardKVVfaiFwXFFVlNrFboasrbkIrn6OukkzrlijrztchlY9RWXmZWBcUZSUnklQXFK+28hSle0ddd7IWoSRVobbyMKF7plJddziYTu4vQ3XlX3TudoVdpj+ZjC5BfWUImRtQqLBbTuZ6FyjsytqTeYlyPios08i8RPmcxu5MFJU3vZ5GjeVeKq+jPKKy2+JHI02yUGW5nsbV2aWzW0LjQlfr7Ipb0PixvV+hzvIikMgcpd2eYBJJVNp5Y0nc2CqlJYXE/aNIaXc6mkTPmqOotIwj8e9wvdZuGVDIYq1dTgMavymN1nIrib+EWaa1rCDxjcGntXbZjQgkaC1qLWOBQKar7T6mcDd6tZasCAp/wTlXa1fZm0I/qDWotUwBAnlTbfc7hR+N3bdSaznbhELx3cNaO+9wIJBFqLW8ReHGq+3+CKTwPVZ5WsuJhkAgy7R25X0p3L9Qa3mIxE8PyNNaFgCFLNXarQkm8ZZyrd3hBhTuijNKS2F3oJD5SruqUSSur1dpmUzigjKVdtOBRF5S2n3uRyLNinSWVSFAImk6u7+iaVwfr8pyoBGN88tQ2R1vBTTygM5+dkAnIhd5SmM5dxUQyXsau/xeVK5tmcJS1A+o5DuNdUIZSeZGKOxKx5G5gD0KaxJ6B5DJffq6iol0Luigvv6i2EtAJ4/r694gdKHH1fXj5t8GQklEbWUupYvK0VbmA6VM0dYtJnV18i9jDd5SV/suUmlUpKt8A7QyW1mvKCd2DYovYw2SVXVrqV3kOU1ls4dantXUbfOjdsEnFZW9/kAtDyjq9geQO/99esrBICCX8Xq6YyFALxlqyqkwgjdYTXcmAgjmFzX1tY6keDFq+mHzdYFiFmrph803JHl1S5R0DYBkntfRXWhK8/wP6eg9Dm2BZsbq6NrB/3KZ6m+5tBPV66ShMgBlVwHVzNVQN9eeZC8iX0FvH7oOyOYxBf2uNP3onme3fm4g0M0A/bzYaygQzhL13BjKV7tYO+/MiwfKeVQ7dxeQzmbl3P20rxvqJo8D7czQTSYSv6CzqslzQDw3q+ZeAur5VjOZRv4aVyom7wD5PKeaLij0s1svSWFgvfRynwIDzFJLPuNgfif00gWFAwbopQsKC8xTS2ENFgjM0Un+BB4YqZUuKEywSCldUJggJF8j+YuLwc0auV1+wAVf6qQLChdEFOsjhwKBDe7Uxx0PBT5YrpEuKHxQq0hJXVAuD13/mhMNnLBQH11QOME/Wxc5Xx9Yob8urqAx8MIMXXRBaQ7McFATKWrJzXqoorBGR+CGJE1cZ2CHbYoorNGDn7Xw6qGwxjXAD5P0cL2AIX5RQ2GNf3K08FIttGoYDBwxWgsXByzxgRq6oPBElg5aNYxnah11cHcAU0xSQhcUrvheA/cQWwspUkCeALYYqoB7Fvhiuv7xKjDGbgV0QWGMluq3t4AzHtQ/FxTW+Er5+Ii3+WXrHguAN67SvX0CzPGE6rEUuGOF5rGSvfmfUz0XFPa4WvG2CvjjGc1zQWGQ7xXPBYVBAgq0jh1+wCC9Fc8FhUNe0DsXFBb5We1cUFgkqEjrXFB4JFbnXFBqAZM8q3IuKOHAJSs1zgWlNpvzZCucC0odYJOOCueCUg/45F6Nc0FhlI/VzQWlGXDKHmWjuDWrq+tVNxcUVrlR3VxQeGWatrmgMMufyuaCwizBJbrmgsItvXTNBYVdJquaCwq/fK6MLiiXaRRDvTdzvCu8euaCwjFDtWwTgGVeUrLdAzyzQstcUJjmpJK5oDBNUyVzQeGaMRrGFGCbqSrmgsI36RrmgsI3nlz1Yg4wTjsFc0HhnNu0i/8A67yjXCwB3knXLb4E5jmjWqzgfk1Ua+nAPSM0iz+BfZ5XLNYA/3yuWS4oAmCvZrmg8E9YlVaRKYFBL63aHn+QAA8qFQcDQQR8oFMcCQYZsE6rXFBkgF+hSi0MhEB7lXJBiQIpMFanXFDEwEsKtbogBz5TJ3IbgCDYoU5X/7eSxAJK9Ul7t5Eg6IR4Gas3o0Jlb1Mx8AqvlEm5WS2kQBqr/NUqV8o93FoIZLL6M1JDqJ8n5R5rJwICyxhlX2MAiD4r5Z7uKgG6cPrzUQv4v0SdEbO6dXcBMI5Pjl58lhp+QsrNu5p/pvD5wqMNXJzQI2J+P+O17PMll5xs//eub1liFrjuxT07meRsl0u9v2yfmD2T+zP/y84lPJLdDeBS3SXlFg1knVZMvuDoCZeO/3Yxvxs/jnOG8vhyo3rqqJ6NUm7ZKMZ5nMUXG30BqtfVYu5YvpnD4UuNfgDV7R9idne9nW1+YvB7G9xQo3/RxdwJXMPf8W3ZCKhRVoq5d/NMaBV7i4Ma5isxW+U9wjLd2fsf6nFQ43wq5j7OMfHc7VZwIPPF3CcY5gXmdgc4kn+jlPMSvyzk7X+i7weHMkvMTWaX9aztQQe/uZFWNVcIj8Smirlv80odZIxnwNG8LOa+7+GUqxnjOXA4T4u5KX6McgtfvOiD90p7xWxHyWifl8QLikfE3MUBbPIRV7wHPsm9Yu7nbPZXppgBPsrtYu4XgTb37vt5vnsINq5Kyv0mhEWCKlniY1++Sh8j5n4famvWDQv8wJcZXinl/hZuZx+A80UA+DY3iLl/RPDHIwzxVQD4Ov0qpNzVkfalI/+dCWJYvcul3IwruGMpO/xghnNZTJmYPV/rMMd2djS9Q8CMdCuVcrfW440CbjS9zXEu61CsQY4O9bh55GWSzly7IjHbvjZhjJ68sM6sp8ltxNyDLfniJl5eNESDWWmcrz6ODk9wwjbzHnY1Oi9mnd62XDGdEXYbqDMnaAGOU52Z4mtGXFDMfNAVna07AhwZbLC/MRgXDRLgYMNM5oi5D7kiNEeAI9TLhguKyf/OHNUbAY6OfLigGBcdEuAYzMSLhE6mG4ztkXIv3MAN93PhgmJ6AnYrjQDHayy8+v4HGBc1EuBYyIMLihvi2aQyAhy/0U/+NQDu6BqNEeDIIp+CXmBc5C/AcQcfeEoZcEExLpokwFGfARcUV+UbbRHg6EG/C4px0SUBjjjyXVBcl8Vi7kQeeJB6FxQXZoGqCHC8RrwLinFRJwGOjwmnysBnxPokwPEj4T+tJIBrM01PupPuPQTGRaMEOM7J7OnwK2LuBx7aCUOqSQSX5xkdEeBoTzXPg+szGTVEgKO/3J4LP6ohAhx3CO619X1yFuAIpJtEml1QyPifQzF3RTDZzKTZBYWM3KweAhxpNLugGBe9EuBYRbILinGxIgGO38NpZi+5LPQD46JZAhz5BLugGBfNEuAIJdgFxbiolgBHa3pdUIyLVQlwbKlDLr1p5UeqngH3KNMKAY6x1LqgUJUuJVLu7sbE8hCxLih0pV2xTghwJBHKGtqOVlpeELMARytS+ZBQFxTqnv02UQkBjmV0vn428MmvhglwrKeS7QY+91UxAY7DbLug6JgARwmZLig0prY2CHBEIonso/M4JeKkLghwtKXSBYXO1JKzAMd1JNKLZxcUOxTg6E0hNxLI8TbUfjWJA4ogwHEviS4o1CZglx4IcDzLsAuKpglwvEvea2UDXVDsUoBjNHWkUvdKuScAzd2gBAIc39PngkJ1/9QBAY4M2h5BXQ+EJ13MvYs0jvDqgmKlAhxVd1NGEasuKLYqwPEoYRfqseqCom8CHC3popwFe79FKOU8TxVX0/XaeDywkHmWL8AxjDDNGiYy2+4dHSbQ5YLCRt4Sc6eRxCQuXVBsWIDjHYqYwqQLitYJcMwh6qCEmSSKuf/2o+fsh0UXFL0T4PiBpEMShjLRK+UuCSCGjfTwMrCUey1dgOMAf75jqifAcY4apgNbuVXM/ZaSm+H8q4hhJpgX1RPgqEvNAyYPZ8AI+xbgaM+dC4ryCXBcR40LCnfpb9sCHMN5c0FRPwGOO1lzQbF7AY66JPAYHSwPBB7TQ8zdVo8CXmbMBUUDBTjeIcMFJRT4THuLFuCYR4ULSjhwmjZFUu6hVjJwDV0TAbymSYGYBTjaSOBXW9Yb6OOnBgIcR9u6nHU8uaBoggBHF3eziyUXFF0Q4Ojmao5z5IKiDAIcZ690M4UUuKBwnchTYhbgcPHNcf5et7PfQMVFTRTgiCbABYXzhByWcgv7ufb2FHZcUHRRgKO7611QuE/Abim3aJA76etuFxQD7fu0UYBjpMtdUCQQz2abFeC4zeUuKDLoGosV4HiIExcUhRTgeJYRFxSNFOCYyocLio4IcNzjNua61wVFGPmapwrgPrlPXOqCMgDEkSV2KsCxggkXFK0U4FjlSheUG0EkmSfmvuwmtrnTBUUome21TwGOQy7cbSCWvOO1TgGOXDe6oAgmb1bZpgBHhQtdUESTVyrtUoAjzIUuKMLJk+VWKcDR2G08BeLJw6VS7nxXtJPrXFAElNtKLFKA41q3uaCIKHEX7FGAY5CreAWElBsKpNyVwcYz2l3qb2JK33xbFOC43VUuKIJKr3NS7nem9343uaCIKj3O2KEAxyQ3uaDIKh2OWqEAx/Nu4T9+IK202GeDAhxvuOU5qz/IK412SrnraxvMdNe4oEgs0avsT4Dj367ga5kNIHiJlJvZkPKP6fg+GKQWzzTbE+BY6g4XFMHlySq764+ucEERXYbnW50Ax2rzn62Gg/DS7ZDNCXBsMZ21ESC+1F1lcQIcew1nczQIMCELhdzjHQzkmPEuKDJMQpmtCXDkme6CIsX0PGJpAhylRqu9NQQ5pt4vVibA4W+4C4okE/i218IaabYLijAz8JR9CXA0NNoFRZxp8JN1CXC0MfeYojUINP5TKiXcIpNupOtm7HPUjiDTXLtfxAIcN1L3ZRrOdAapJiLFqgQ4Bhh6QNEVBJux2QJu+U3GfHisqS4ook3DZQJuxXhDuMVQFxTpJj7blgQ47jHTBUW+qf+FJQlwPGbgs9PrQcQZd0q+fcAEEs1bfxByomZWSbfeSQYwxbhDiWEg5/TegdLNC9R8wZqyESDpBD5XJN0+R4tFVPmNIOw0TvXajQDHR6a5oMg7V6+1GgGORYa5oEg8nvijsu07HiK+GFTVHSD0hCWVCFeAgwT7Ne8DIPc0S7UVAY4fzdnDIPoM2GEnAhy/G+SCIvz4xe+zEQGOdabwLMg/gRMO2ocAx1Zjjs6tIEEJp2xDgGOXKS4otpCwxDy7EODIMsQFxSISkZgv1P4Q6hOOm+GCYhep916RTJteyxfkGMAssI7UTcqxBQGOQiNcUCwkYROPSrRrIp2n3FAXFCs4CcgUaDPqOH7WaYILirXEE7dW/AIcoQa4oFhNYld6xSnA0chZavvaBSUQbCfd5xUJszsbOnsnh89dUCwoUQm7Zdm9TRy1LPO1C4odxW9gWqXQBTja+9gFxZ7SNjlXkD3Sxg1XE60OB6tKyITtcuzRds5dPO9TFxTrSr9FxdIW4Ij1pQuKjSVyQrpXhj3Tzexrv7ZeAbaWjsmnBC3AMdx3LigWF/+BaeUC7LlrHGGMz1xQLC/RCVvl1/PXOcGtPmFfI7DAxLx9VHrN7+MA//KJC0oTsMTEzDwlPAGOATXnAd+4oNhj/GJnnpVciwbVmMed51hrsMv4D0wtkKsAx1POn9e1BftMrXFfFIqtcTXkOR+4oNhpQgbOPCFRAY6XnXdBsdf4xSTtklgr76wRrzp8UhcDlpvWE1dXiVKA401nz+muBgtO4we/L5ajAMfbjp7SXQuWnNCByRmiqvex6jPDWRcUm06rhLTzAhTgmOuoC4ptJyAmKcOLQsoL1SXFSRcUK0/je5aclpwAx8eOuaCMBHtP64S0bKkJcKQ664Ji938oVzp9q1oscejw4BZQgPh1SUg7J5q+66kGXzrlgqIFCbhm0hcn5dJZ1agjXqhVd4IupHH8zIwqIQlwfOuMC4pCJDw2ceU5gfTTAMeVUbwPg1YkIOax1N1Vwugi/0vwa815GnQjEbETUzO9gmha4N/zhwMuKBqS2rGJK0+LRIBjXc1dUPQkLW6e+t0JaTSjhiSBtqR27MTUjFI5CHBsq6kLis4ksMuEmek5jHdV+MVk1tAFRXPiaTP6+cVbS3nu7xd3b81cUDQojQdOTM0oYluAoyY+cvM9oEYJaD/2xSVbLnDaDdH/j2M1ckFRp0THJiSnZVZwKsBxqiYuKFqVwNYDJ6akZ3m5665GNVH0+jIAtCsRV4196v0f9pXx1W1RAOer74KiZfFv0f++qZ9tzOGonwMUVdsFRd0S2XXkI9OWrDlRxUljobxa/BQCepeg1v0mvDI/fW8xByyEqurwcyhoYKK7Dr375Q9XbjlFOEegqHouKLqYoBZ94ie9syh9xxlyqfTsrsZhdjioZQKbxIy4+8VZaX/sKaSRMvjg0kfZkaCiCW0WM+zOJ6bOX75m7znCHA+hh/dSmjW1QV8T2Kj7DeMfevG9BStW7z5TQQkzAFIu6YKivols1XPwLY88l/zh4m//3H4oz81UdQYI+e1vD7HrgT4nsmnn64bEJzz16oz/fJWese90iXuYCfC/nXPx38OSSNDwBNVtHdN/ePzdDyYmJX/wcdp3P2fszMouMJD0YPh/6TJzV2XlkQV9QPUTFt26U0y/IfF3JTzzUvKslPlpaT+mr87YmpWVnVfskz/6fjBcNolfdHTz1p1ieg4cODr+9oSExMTEl5OTk+empHyUlpa2Mj09fWNGxrasrKzTeXl5iBcy53SH/w0AVlA4IL4zAADQWQGdASpcA1wDPm02mEkkP6KhIbM44/ANiWVu/EDDGoJkDT5OGfSlzv/QPwA9qCAH570CBAoz+1/3X/Df5n+/f///n+sleHsP+D/YX+8fsX6CeATon9p/pf9n/un/z/03y7/rnef2R54PiX5b/nv8L/kf/d/kP/////uX/mP9p7D/MF/hf8Q/0v97/xf/w/xv//7zn9b9AP9d/1v/g/137//MZ/of87/lPd//fvyd/wHyAf0T/df+b11vYP/zvqBf0b+9+rD/tv16/8P//+hP+a/7b/6/8L9//+79hn9F/tv/t/0//B///yAf/f1AP3//f/5Hv4B+///m+D/y3/Gf2P8DP1i+wHSH8Of3Y+U94B9k+C/v/25bjXZXiQYGXwvE7+k15c9d/9eZD9z/9u/08gAPY90ZrO8ocV7tp5fY0y1xxqgtztEQabk3JuTcm5Nybk3JuTcm38EebC9Wjv16ZcwhZ0YgWvtFBQrcOel72Mgm5i1xoxAdcOm5Nybk3JuTb9p62aZsKKCZOJ1Z4LiA64dNyfsMMGiZeITHntBFgZ+T8n5Pyfk/J+IxXWJJcaZmOaPX3EMp00YgOuHTcm6oDZIpEr35eV++iXujEB1w6bk3JqLOVpLawtTfB0rjQ8PjDpDdcbQGm5Nybk3JuTUoURxcaMQHXDpuTcmqY+rh/zcm5IYgfxXIIupqbU2ptTam1Nrd8J+UN8auSaMQHXDpuA5A/61W2mObkhiB/FcqF3PLh03JuTcm5N1GmY7I+min3DpuTcm5NRZxpQORd9Qw8m0zNBJN+5FvJlw6bk3JuTcmvmMQnq+Pq0ueAvNCA03JuTcmos40oIiSaLyg0/J8IwzQPOFOmjEB1w6bk3I9qvSqIi9aHTl8+RyuGXujD+RZ2oB96uHTVMe3nsm5NVOIlPTzAiwM/J+T8n5PxCn5iVnH5hbywT5fIvbIj3RiA6NyMDHqyJJow/vrqRL3QwuUkZ0bETcm5Nybk3Jqn7PZbDjj/4uuVZ6pBpJsm5HQQH/Wq21Nqa/Z9w6bk1U4fDIqb3RCkjL3RiA64dNU4pWQhtCNHP5aQz6Ni4nkvorrEiQR1tebJuSFn3DpuTcCo2THN7yZcOm5Nybk1Qscw2kEhVTXGH/XHh2F+9RZxpQREk0YgOtbT7h03JuSACLgRr7Qv+cbmeGXujD++wkVGN8+TBwFOA9eQn7BA+tKAubd8n5PyfiCCoIfBL3RiA61joXAXPBwATam1NqbUs1IlFwJqxRY9HnZsOGkghoUl0/WU+oGfk/J+T4iAm1NqbU2mHw/KJin2R0+mR3o/dz4WaMQHXDgN9jE+IEObfDK53MH7eY4dNybkg9vJlw6bk3JqbaR6b5jSjhjC2EOniFifhl7oYNxKzWvdF4sJrUXPNk3JuSDS5TZNybk3AFdN4LoLi4dBmHhLZXz7kggJtTaYD8XKjiAzbycZ1a2HXDpuTUWd2TA64dNybgCuYIKOXgrtGIKuaG4GCJ0xczt59frqMOmqcybXEKQ55sm5NyQs+4dNybketvwpTDxzMOm5UeY47ReOT5C9VApr5Mn4gDLeUawZWAsBYCrYWp+T8n5MKt3OXk8YUwM/J+IQgJxkoChFckU0HOKbalzhygW+UGfk/J+T8So8GNzPDLc/tBuBZH3Dh03JuRydj3BqAHIYl0IrmLoS4MKMujcKZsm5Nybk1FnDcnjczwxpf5zrJ63LYeSTXAY90YgQ5du14By4KPcc+XdqzYRRLMnN3ujEB1w6aih4OBqM/J+IVcAGDDjBfjBHVlu/iXPp6x16S7C9oDrtdqnZ1TqZBf/S5z2ESeGyXTHVdPH039XPGV22clqO+cLdzybG5nhl7ouzo4g8zwy3P7poYxv1obHDdnbiodNycp4KAkWGfhZRSOG3ZdQeoAPx9kvuePYFJHAi3oSTRiA64dNyOtBcRh/T/WooMTyfk/KIEC+wYdaM97O//iglzOVjWq7fVDikVNo4/e4xHDpuTcm5NyamXA3JuTUFgHXDpuTcm5QhgL5FbkUKvrTAF+d2pf+xL7Bsn5Pyfk/J8XHJqMPKYgOkhrav/erh03JuTcm5Hj5J9KzeJA4ZBGg1n0U28tz98d3JNGIDrh01gBFol5JkbmYqBJsPM8MvdGIDrXRN6o2Dg8nouPgHKkeUwjeWGzNEF+MGmB7vT8n5PyfigBl13KF7ou0a7FOLam1NqbU2l7fz/DaquChBGivjH4MgR2bwAlua8rKGCvPOjmfnk/J85fN3R9CWUHum/Tcm4ArRNB3JxAdcOm5NYDfM8KnoeGAHoVRtp2WQbYK3lwJ+efTV2Vhbyl9UIdKJBPVeXHUd2RwTWljmMcgL//JAgq+0utIHHUcOm39lF5nhl7ow/og+1rgaQPxEQtft1x6Cf3Ye8XLAWAtqEoI1CEV52TqOHTcjr8AWBn5Pye/QsgxUi4qiXBMTYDtn8utjIXWAsBYB/IYbgXmG3nwy90YbFOWR8q7DpuTcmsCO9lvq3M8IvJbzixNv0xr4ZiTt6Fk3Jt+6VCZaJJoxAdansbJuTcm5NRjgVzP95/DpqhUTFqflAahTosYcb6MQHRpZ/Ngu8MvdGH8oQJWGohEvdGIDpFKOA2OwjczE/OkgkRL1etnKd/e1RL3QqWq3BbfpuTcm5NUrSmX1NqbU2mGs0fFtTXt6tEQy90YbI6Pdn/WGCBaSIdXsnUcOm5NyakGwz8n5PyYmraPbXDLyX3uTGGfk/JflDwZ+y6N08KBcnuWndGIDrh01V2zVjcpsm5NybfgrxKrPBGXdGfTvLczyRL3Rhu4rA/65+5z9054LykXn/8QDPyfk/JkgiwM/J+T3lXgzg4X2+jtaKQTVjieNhhAaGG/0Nybk3JuSHOgc7GsPtTam1NplZ4dNybk1CPGtYCkh4qrzMvZlBlt9TlyS07oqFAM/J+T8nxNgROJ1SujEB1w4DDagUOLmeGXqvY1rAUx0WJJCQYOa5wPxswGIXujEB1w6Q50Do04OuGXujDaT82SVgLAV9lnIbkPxOpES3lyOYnrN1660+051x+6U824Ze6MQHXDfXvXTtQDBpJsm5NymkZe6LtzfJufk+FDjpRxwqZPn2Kcbb0rI2ASXujEB1w6bgomsnE6pXRiA6S/ZnbU2pZEuQP+2AGfk/Eg3fOb2HZbrlwaBtE2Tcm5Nybk3BRNZSGS7XEB1rScbmdpeSYEP6qwz8n5PhQ9iVGTIjxfD0kdlzPRQ690YgOuHTcm4KJrJxOqV0YgQhAV9qjFdYl2AsBYCwFXkdeD5tr/Qs/K+fbNvvdGIDrh03JuCiaycTqldGIJc8mCHFdYl2AsBYCwFgH30DVNkX7TieT8n5Pyfk/E5LM7PptJsBjczwy3fo0ooymjEB1w6bk1dzXBXIIupqbU2ptTam1NfecFeJyHSnTRhtw/RpQpRiA64dNybk3BRH5+tVZvE2Tcm5Nybk3JB5fzazNKDan3Dgv6oDp+LyMvdGIDrh03JuSHNlVefdh0G18he6MQHXDpuCiScuyf76UyuHIH/bADPyfk/J+T8n5PyZPrrIz+G5a0YQFgLAWAsA9+qey3K02sf0aT2PJtTam1NqbU2ptTam0y4KmpDj78KNV5HH9kL3RiA6ViGP9qV1IVLQ6nvMcOm5Nybk3JuTcm5Nybk1d0qBLX+441SW9b9aD0feZdT4AA/ggP1YcPCJWrgMAgHNKL2ZhiIp+fRGmO7Ofq5WjNHKV9bJFv7qENc0U7OeOhSuxcWYJj+87MGI++uBTWPfD/77iaWMGQIu/u82GYe7iFb0EfYhfridNtICSpqqC6jBI4l1tADbLtkEmp/uPDLsCiyrSy94NykLbKQcIMkqtTfxsKYcuDjMX6fqkkfVZOd9RD2kOwFfn8NymT9ZS+2//UyDUXZRk+1PBLybREF5oYiQrNLu8O/kQ5k/aeWdNVU2DDYu+AG/9msGzm9g+/R38Klqnu1IRXLk1X7uk0I+WuaNp7TXpRJXSo1Q/iT3MJdAADxa2GzLahwmVlf4cUwpffJo7m0Wd2OFHbB3kizKt9VOcYp5THY7AYJo1PHbZKRE+Sv6/iYygTwEHoTLGnYCPXnYgT3/yV2nXx9l3hEj53UByteNi76quVp236dOr2kx4FSV2bFZvAeI/Ype5RUvdm/AADquv1IJHWWCn/HVGqFhwVBMB2y1fBYyx9O46HnOwLMxTEND29WbTNh4kKWd2Wy+eNm8Eqf2xZib5BOGrf//wQjAYQRSLNsD5uXr1CHmqb4ia/ZMQ7T99vJ1eqkZMdK4+QiIhaJCS3/ET+DbCWIUkOHZFOOAAP9YRR03y/uDlHueN37lYnTarQjtFP1zuHg/2b/eOdNJXrgTojuhX/uiH2OrZW+vF/Wek/GdqQZbES03tB8tmxy6JkUcclo6n23mKYkauRVFibMxU34qx290AHBj1IhYvgHAGc2ufGHXArC7j5/jxD64i4RSVDqQ09mCx0IkNNhakpvH1WDtc09V29//UVYzYedd/u4sm7SlOnE65COxYkRkVvBYUBsJPRvEZtg1LJ/RjLhWOl7KAAkMVPEzhthcuufInTarQjroeo5GoplGXQ9RyNRTKLYxIeTL0IDAIhMIE4QKREdPcYnpTEzAbxIAwBL20ayi87TVPQe+eEaUX/jIAKLVgERUieLf6IWL4BwFmwxAkAWhLnAIHCzCbN8KuOub9a9ue/lSqnx916MZnly+2popjgRL7bmui5pQDsLWBNdGJpkQAPVkM90kBlgZ3ROx4IikQV9wBFLAMjQ5zLqhjzqjDvrPXsjovXzKhnDOH4rkPPmJEHrKtQ8+YkQeq+fREb9HfaOELEZwcsU9x5QyF+GdxarQCHFRqTl4djeOcaJaYWMQlvPBcxATlO7n72gNT7blZQjd+bvgP6RUvdfYBImz9EKd2QZZUcDnkPVkNJOBdRzCfYQG///dIy7rKFMK92Z6ULAn1lwu58ftmZ8yxMla7APXs57Am500BKkUpeOGcPx0PUcu7D3Xryd9U3kEm6tVSHx/skgJRwAWV/BLDYqQiKke8udCj1iHZFr4ncS7hf9IAoYP52lPurxq4/cz6Rf/v+hgBG3wvIlOyBPdxV3+pwwG7pxMlAZdjOE+bFCtXRecQhASGKnW9TkMnmVDOGh3Xsjo2i1gds2xPcHamFyriZaysgO+3GSI3ix/AWgKMAboyicfysCwXCoTXKrYTkxBcontpzyQnh5Ne7bWZxd09xieLG/VlcfopNLW7S1MwgL32f6qQkzwP52lHz/1w1cKwLX0NuwG04pY8rCZkjABkziPs+TNilVBAWC5NvxxOB48XW4Hcb2D1py/OplI5nMvEBDBgJpiwDKCx7DDtkaOHodTbC/howMuoTnBVnZCXUJzgqzsbdv9GTXxqDXbWfrOJ3yubjh/Ysx6GwjqCNxuR/zIAdyyDXmipdhIOH7mI2wxr0TTTD/F4vVbnqneAo1yxgzQEmUjz8ALfpYDrTN8f9j6QB9tXgpeTgfVA/SCZWtr08ZpHaEllRR/Khp1CYQv0t9zp8WefHG+NtUuv5DQ2cgRfEFzWF914+tYO5Lj3PzsGd9jo4eh1Pd0RTmEM6pwWfa3zH1cKGvYb5j6uFDXro82nW0dcGCL+GiceQOlN7G9gfCUdAEA6Rwh16Qb0XjKCGRAj0pL4KaBXoTHOVXMrnyGCVmXw2a9E00xAJdauZXPj8gXRd4iqByw37Uf6VPStYCI14Fv41TEzUUKc7bX3c5mDPQ9RpQgRSfNhywHX477bOE4QIlkyCtRWqtxbr8uTYRCAaXHuHwBW7cARSznh2Dv9jJYKtrFRfmjEnRw9Dqe7oinMIZ1Tgs+1vmPq4UNew3zH1cKGvXR5tOto64Lvk0LmA5zzKNeS87dCB+S7MD6Ibj3R0PUcxTvySY4pJlo5/V2217vlLxFJ6QMOMkgDXqwsSqly70fwBPckpAWoclpGfuUZlSEOUDEAE6mNQwmvjBj5LjOC33ju9OC8pRLZlyHenD2354+S6doH0kQFoN6JHqIMN+yZ42Si4/tm+aqfAv4Y7gArduAIpb/IPIimjh6HU93RFOYQzqnBZ9rfMfVwoa9hvmPq4UNeujzadbR1AS/honHkDpTexvYHwlHQByw/QQUzv1C5DuSfgPEK1bS4PQyo5/V3AuGlnPuZXPkFfKt5YROKFVSWbiIWC4GVO+56lWnm1ntcvvVBBKk2T84j/4lD4s2zYojNJLWFRJHD2DSeFFiBybyAkrg3fR7kLnYgLQbz4leK6Lr1T+qhJ4ilBwjqeACt24AimC5NxiH0cPQ6nu6IpwVMjhFCnB4IOZBVvOyXUJ03U+nAccqzy9n169Jpmx89xjDsByYIpKGnQ5gGGYlaXVgewfMARMTRp5vsH297/LnYR0m7YsESGX88ydArYh8ue61DLmOCsYfOlxcdnQN+jqIW6phcYaMMXzsGkeCgyTXt3EtnzXbL3KHqMBybyAkrg3fR7kLnYgKPnIsSdY/g0Y0nHnICc6nqaKWH4Rt94km2xYBk4AC+xDJRxkPXy+teSdobN0NblNrB9kTu2fjQPdSD0M0c7+g5flsFGPCEPOMTJmUCQfjlYg9KqPACnfKUMJc6X7+p071sL/oVvLHX6Xf74nwAhFVf1a8NFK0E9Nwf9n8VQYHaF5qyr6lddxoC3DWJZSZqA+WefIu87ZO0R2t2scffkbAbistucQcsB2BzVLJvxYkKo56mY9njCzR8LJtns/zUNrcCZxA5MSYAfKo5mRNL7cYsqzepSAAABfYhko4yHr5fWvJO0Nm6Gtym1g+yJ3bPxoHupB6GPKAdQIGaDMzGH8rjmNTHi1CLAPRTI1EHT92pD3IlDHuJ8VaCd5zTU/RWSxd4hdsA4VSg0RH8U+Gos3VZVlaPjxXO4qgwPUo81ZV9Suu40ERxOWFLWJqTQpyfzn++vpc19t43XWZnGEM3d2gJMVFN691GY7xcnWS1pfYFdYBXxhb4GpVw/f/PSIaixO8IkMM4KcPXzPURiRVVWTq91RWhM5QouOqD6bDeBBt4BEr5mqstw12DuJYLtBmTgWl7Nj3g0rL6perGJNWT1F/hOABAPOpZmLWrHJVX8EhcJIuln15sI0E8I6kFWKyqTmhD0kpc8H0rsbVV/Vrw0UrQT03B/2ONoRmM7vr18KllGUkAWjiE2Njz5ABvDQa4A+y2oiuQqxNSwD0FWwZ27Se4ZkzevZVdyDi0sNXcnHul2FMxHaI6RSfqVVAnG2Hmucr9U48VFIk3ERPXUu4mihK2/T/dTbqOByJKRUE4kNm6GtymZl8L9xQR2AexjLpc/vKzSWL9y1kDZY5IjOcABLjhFiyzObLlgwrWecL+SxuhRQVIO1T8p/aciPgAFX/IqQQ7r80q8E86q0VCbd1wARppG0IzGwMx5I7UOfO/uuO2a0qPy20F8hZYJ4gR5VpFWPc5TSICis3WU79TH10FOhZo8wbf7bYRpn5XmcBn8T5PgjQFDVPXyeOwxQI6fy1T4sxWiOyeQli7LW2WyOQP06RWc3bvDd0+nC8a0yb0jr5YCFHX3rZjQtwTObAFzx2BpJwSl9d70ojkU//DoI2TsJUzpELOlYeaC0f9s5mt/EMMaT7NInP3G8LO7qbdQixSCwrjd8BbL/DrA1Itl+k2sCLuHACDO7Oub3NDwZOo9Hi+VXx3UFXeSAVf8bC4t9Y3PtHOAbbklZrpEPV2/+X4cGWmKlnAgUrzrzwAxahcejAV5fRQvFKpjvLzfz9s/wEfigaQVHUEqDN7JfP3wF5mpEuVtXv4mjvvyqRjqXmJDvXCt5nYCXphpf7BjvlrX2oD4j4RoFxx00NHjP42N9YdYy+ueRNFbvBygXUMAKLAMlloLb+U6uM6JiYrshL0hrYHdADAQiVHIh5sP8BsmNYIrsQ8kd18Aj0spxO9RgIdKGRB9wAwTDbqf3a8OjbrOL34k0Ab3VUMX0RqKYqWcCJp2K5EOr31m6gejvQuG6XNtpV6BrpRuBNLgHU+fO7G6pNJ2ldhzBsP8UkD2OrTtcmsaYU+XzcuzK4wXSb89A5egNLt0Xl/sgt9UKQvj7dx3nSEDztqaKUKYkP5c4XSFLbMP49W8o21n4OoC0t8weqkanZio8Uaj6E3nDIgLNAfzIhrJhyW89z8mvsXJXOATjJ9gldn8IqSNzdM3I6pV0I+5b3wKz/MfZAiWCXcgRa8omK/uaOmkArhE2zO8QwiAb1futQ+kOsXrzwAxahcSLDOUrZptKvQNdKOYaG9yzzbjoUtiovhoAFMVagyg58HMb97UnYVHiAHOjv4+b5CgneeW5QpjZc9kUjmZtRsgl19k5M21CEFAc5mFCyGkDJVWJUZn2oHHJs3byqAMepjk6x2zQBayPj8xwJrviM+ep+YBj2LvmEKrd5VFjbppTxiZ3g49UUWcN4GwJbrwqfTDac42cRtJMloUIA/BEIiGHz6yM3E7r5XAo2NT3rouvaqtHHZlCUmvqdfyBt6leoTxf5a+VBjXcnYvyOc//ho0vlx90ObpZ1kmiX+coYfxuUqMt7QNAOR6iJbPbxDTtgKkLQudQBe6hjSdnthiScTd3ofkG/tE2HxHpexv8s0374PEkGtiDksfaEOzW2Dfttpz0Bn85M5fLRzFPoxXygQ/ZdqCTboygYZ09aal6l4Hwr/Oo/+n7t/DMVg19rDFiiAGu8X0j8abXs/Koqcwfhe4/2z3/ABA3/bR0I1xkwELJykLGS69qq0cdmUJSa+p1/IG5XRwlLYRVkoAFpkyMxCDSfMGtQSaQdx9OTnUBYQfO6YY8bi1HWUUqQeECagPE72i2144Kt76sdMSrfqPZme9YWWRV7GbFB6oZNKFv9BFnfO4zu1XL3j7F+0z9ZAbAf+G7PRLgsUrDu6Rzy6mBLFDND3KNHCtxcS0D6dGEcSHYNv9uSgxRVKAB4pdB0v6pFVeo+bs9c7OcdqCkVlmtTrX0J6EQ2px2cECHwVwOH0AiTEZOwhR3QcKV/fK88GVrVV21HkOdWjPZOpaAfIpclA4L6WNUNgM7Q/q0K490Su8wrfru016bvdlUFxq3+gRYcHrM0qeK2VZKABaZMjMQg0nzBrUEmkIbnllQCrb+wvWA3B2e5irPTkzMgS+dKYn2jYf22MbG6af/jC6R/Tk0SqdmudlJzAwJ1taBPrfuNehPP11KExCWOkdLIaX+bFBicyizGeIgwCGblyWyLFaSlqVbne2brfc/mWo0XxjDRSrEJk2BfRCHaZEvhp61ktfDuWSnA2lf/xPPl0E23hxuC6nwlo/Drm9v0/ag/F1tL5aJjIweTcRn4JyAqW5oNr80UGYawc+GogE6vo77hDjJ1jOTeT/K2nIufJPD1GskxTy7GIOCcmnQImOQZ+PVWbZyzAPhrd8urGY1OKjrASZHfKp7Gcp/AkYOZoXGm64PTafv/PkkuVwl6feRGKvI9/DK8onY2rx/up/2mn+KOqe7OajCYKXVgzLpCeSfk5af40No11dhwUcx8dWSqSh/K1+YBOpJlPIdpdm6iVMLKPpFlQr1odkE2CP1VIo5SuNy6+6TmcCTonrnHoCGOjHScbrk8x/GBtscLegAexQ2aX9x8+2uTd6S5n9CRszKoB90jRNDH6PbGftFrpKo+pX0xZtQCKoO8zT6wzwo1WhXMhqUQZm8VmBSjnAICqJpB5CiicwpKBErUb2rfhUafuSDKdg9kBCeUbSM2rm3v6xLXuBAKfDIowdmctixHZvwi7KXarqKyt88zKUpKCK3MiHWMHcCM3NEqqHnEw1D3AED2TnvH0UCuM1CLJCZUNxCx3ipWic8ZnTWRlJjoIVxZ9XCvhI9ek5nExc35Jv4IhMgSAWTU8aFc0VA6hlNR2pGpJYs3fLOWwneDvajpw2SMN/R6lcilJmGJ7EzcfZ/Fk8Wejr+/5tXKJX9aSf+xco49sn8DrZFR0lgbwSUiCRwF3NLtmHWf2oMsdSvG6hcLBrr3+kQt1N+Mp7DemxWnXojE+j0rOM5OhZRlvUP6z9GmBcEx6Q/JyOw2xqNOdE632FIhn7tYCRu6sB72Aqg4PAAtfidDmoVXc7/GpF/brrB2F2OloXzpNxV9FrZ8fOGKAB0F7O14f9AGZNoXa9AJjg52sq+IVJAKquf8MAH4NSVxw0cpw4NXF3cRHnIrhgIwFjP6W5wqhcxT8/EOHWrMhif1WHgeeQkI5qa5nnoASoLDTjQwcWV7jFWSICuXHqtE/lTjOBESfO0TARFI1SgBmsyI/3GNEFI1mWq+ZFCbvOcueT3A/83OKPYmCLqAlrY4AAfevdCjm7pgTWaCRTnDxH6kAjX9vhfHUw88TIBwgQZ9qjIGc58lFwoc7RKZK/WAjPAzu9s7e8aZIbW+c6Wk4ootFL/+hsAmezR99jSps54WA9ONBUmU2dD3s27jqU+IG3RM9gSg7rwemGjR+NwpRRODjjTTAn2u3UTsIwtayPFDA07kOaFgtTGkkgw3U8GH4vOynI/g/AfWcffXyq1ZUhl315z8jhXbBtCvyXzSVSVWaji5C8YyeKMDXNIneZxc9ABsAsn4M7nAnn/8p4q8TAp//+cXR8BHJuUQ6r8VNCiKj6OBguoyzsWeNA5/qWYWEcIIqiF6A+TZb+FmYRUJn5Gi6JGUyLNOO+NJ+figTtmA6tNh4dEz3H6RXDcBySZIrX1x/qvMwI33z6UWSgADEW5LoosaBmvi7ac4KbXK48vTJ45XygdK09HYNfgGiTJXWn7f4ipK18hCMBG0XxC4uG3v5w+eBu9QbUnKWq5+dbjLFjz2fo0PfHsgTnBhirkvs0d+XLRum81mY3wvkk92a/a4Xn0gSjCJaF9VYMnmd+inaF1bj7vXNMNi/tqCZOdc1ROkLTDiSTA3HIiY3ql3WZ3zGwriCWIQsW7cLNExHh76d/V8Q0PCyrWV8h6rrpZQu5f4op+5J9cR6SmyFRF5tiTbcPC0AAZnWDsb5zC1r5NceLYOgExe8s+vc7cduhG9Uabm8p/YsF1mRV3kxuEeB4cQ5H2tevem1/2MrxQng5UWtRWOaiCr+d8XMov9CE+EBUVd2flFusNk51fXutaw43HNekqFuLCkQzVh9X56DSGP69R3SAYAArIwjs2jW1OEEH9d3hpRhm6I4reGqsv41D+NWSmfSGl0UOIfZux3VMx7UunlX83m8+0W2KmozsdhaO+6NKmor8mMW/uGGEuCLDCH+muBQMQ8FiCFtbuZj3m/Pt7/hwoIfh/bDkG86PdZZ+Rc8faH2KC3LQKywr4AIp5vgKaS2j53lEMqEUbUefa0r+gycL8+Ls4ZWbGfL3dqfyttMPexP62BQPR9xYznii+JNrLjj60f/gu1LrAEVwUZuyIXG9NvkuCPzgABVE+PipvkKaGAP49qwUjWtAo2l/sxg3Ujw9TqcwZ3IcLVE9P5rdkKFOlmWGzjYzWfFYYsHXcyoSsQyu9cKN167mJ+N69rV4LM7Go/yImPkqRP5ExxW8HHnVbDXWIxDeThtwhryD9h1YVuiNnYbxbOB6o8U7dvDqVaSabhTCLh7BGPI0z7SoTnjt7gvpG0YJFNjd+gYdjDa+YeEACyzNtqDSILJ+DO5wJ5//KoZYNFv2KCqNesbUI+3fnW3t7rwOctoFYrM7T0qqGIPbCurSiuy5viDUBXiujZc3yjmQVJH5n/e/Bfc8QNJzdnWQhSMNKfD6VV1sLNZ8xYkABM+0ZvAdssbh+X40lgAF/+vlp5PY/p+upeJVhH8Q8zLxkjG3LUW+yh5AihAUpWRjaQpT49j5OFVa+DszQF6j6Hg/EX/afmqUhin4/qXAqmz3BHbiJeFHwszaJKH6VT1cxfT5Xh6l+rakjK9gBcJawput2G7FCc0S8upuyOqGW1tAlPnkc+hmQAcK6uOF7ABZPwZ3OBPP/5VDLB09TfJpG8IdZzyIWOFgSfYznPmZHwXjdyc71H1cWLuS+6uXTieTEr214Fd1ZBiBM3znZtvr9ffI57+xqyN+NERurN1AQdodtLQ7q+oCfzAA/DcY8FA3R1ByQZShFtb47N5OGAK45j7lZftPXSdasiXanKNAV1P6Phfn3hiESB82ZHeiEQKJE54WxO2UBh1zG5faujPsF00ho13FfIChvag7DPbstkNBq+T+YKfJbJiJnQOrlyN2Jq5Ef+sRLqJXlLjJl7dk/XHunYAvyR3z5DufSlpaPKoENZv5go9pMNbY27djtp7hKEBAZfQ1ojq7sQW6nka98WIaIcgJYhwfc6DvABiX9uO5Ad1qkI4774r5e6iLj8b6AF8x6naoAiSFap0hSozrDF+51xSRIEU2PPf3fm92GCrBjfoTj+g2yMeeL2ARfcB6d8whMEZ8e5jU5TCO0vXvDGerhURcKeU7Xw1n0dTRCOdVsprAdl+wb5rJwusrnmX7Zxf8FhUJLWDbJEn+S6oUjvDM6XQVbv7odwMSKcUmp8coxlLhaMQz2lEwjiEqEmWMfgYbHz6QHtWXpoXWTL4fza2xEAs1xhBTiJVZdUHlUEQ+r/0LZlcJ4Yv9sdTC2MTBf5ThZ5QGUqyHLBGTDrGLsVM1oLC2hPWCjcYaRmdQ/pmNKj2JrYsc6jQjXwLJWu1Dz45dgxfUp60DDXevEhKyKfFq8OijGQsOVYpfuJVpkJ2iCAAGEs5QZi2fjw/FWpGPHw9ACRtmE0oH2V+uDkYfPacrAPQnpgzUE/PD9ICjzCQWe6i+QfVtElkR48sMGVfEuDKc+GIceGbdqyGRjjrc2M9mzez5B7ZOJN8QBE6+uw2HeVbXIGIrKQ0nDhXzvnlIi2p4dN3k2nxbL0g1yAZAHPvVyJajHVRzJB9sJ8CyVrtSLoGGu9eJCWdf2bmCRc1+y96qxAUBE1GBzBSX3ke7ZBOTBBlyFoxXRs2nKsXsIp99GmCagGJ/H2xwzr6GVzG3t86vzVqai6XlRpr8Q0+fB1wFQLmRVnHSpamfUBQbBMDo6Kb/B15Yy/O3Nn8hH57K4/9hAg4WDYQRS3lNT5Ch0eiDYTo6StjQdokyhOROoERpa3v1rQ6EmBQ2i80CThyEnGlLNHZHMkH2wnwLJWu1OfKkJRNBMi1rlSEomgmRawlW83o+aAHxCLfFWIIxFMuOKV+TBpP7j254/OEESTOdLrmi2KuF50lAOA9Q3MoL1NWiFFci+Xa5ttDCWrz/bnbSXvbpqyGu061UA7LWRxNIpIDwZSWgiV5p/4kABgLg+C2zhswBCxNC7tqKfCLVsTVQTvUmOxdCTFReIyg7wmnzjB7jFFzWMjnysbdbTXkA3nZzpEMcyQfbCfAsla7U58qQlE0EyLWuVISiaCZFrFScuHuEIr2SOUOHnVtUiwLnx7m1UZOg6Q2n+C6s+ljeimqNFD6QyeAgPMvamFJitFtovJucR+onGwsxVYhMUZ9MPcMihzt5sqn5yfVCEr5AyLgl6/yDCKQ6XhcpbU3mMTo3D/kMGfgbST5JCmDditQ6N3UNDMsA8mMlCT8fLcSABtCFjnUaEaVTwmsSU9d6lOkMX1KfKLSuztnG5iJ5Iy+qodLgCgJKEtpCCYUOIsN9X5+8stNdgCvPumJfyoFJVgcbO3dflreoAcXQZ3OOTORrK2DAgQ6HTwtnHoyYiGmdekCqwIlfhwthGI0rxU/YbkUfXgQoJULE3lbvUQElzM0J0DyOOtFSVrDZvZNEDhBSBZBonnrmQR7dIiHXzoiW1jxa7G2H8uT/ttJpJVPCawXaucBBfMccnbzY6kaDOMnbzY6kaDN/6dVV8m3buXZfgFgQEgzThQcQUicv9pWVrKof0oLkn4/CN0MHpHLZGCDDZ9J/n8JK1wJN4L4tMHgvu1IFQRPClFP70Gq7kBMxe8+W4Arefzl6znYpxw8Y3tI9Q8XGycDs+GJtkeDdycLTxGVULFp5hLg/kwj7lMh9Vc4CC1pVPCawM0EJhAww6L2nSdvNjpMaM3y3VVqBKLYFrksAJCF7pyajvDUgb5i7P3VgprFfe2D3vzGpEGjzIEjlugLXhmBm1Eb5zYXIEPzQwiOT4wmQ15KBV0q3wVIXIFyOgC0PljEqAAEA9/p5Ysm/FoYtiYLWCLMB2tlIqH7VUr0Bmu3OjjFA9OsYk2JezGbnc57kzM8LJGPqwo2gagF9GAwwcjOmX7wQQF2yhl4pxdJ/DSIRuQW1qUPJseqLRMva8ojbfmTYaS2zMSZvLdYF8m3cSmfv9WbgObfXS8wcAqDyBMp4+oR/4gB/njaXRIk7AW/+H5oK6iNdjHzFyyXlcixsveFKEBM5knzosYGI6+7+w4oz93VajFoIvOp4G7Qw8sqwYQO1Fu4kvkiTnfTqitYSb48Mlb4b1uYkX5/W5p+wER3Wqwo9xoEvCliQ4rAfxI4JoXnX9areNSP8QyXrr3lCB+A9jJy8nG85iiAGtJfSxnypWN5EJ5Cn4IyEkpGEFKAVHybuyip6dBFIOYpJmnBCMxLeZEB7LkHuEmmk51Cb+cmRAzoUAaC6KPc5ps6RhFQmfgfmS5chKlWstkSxz5/55yUjTjC3MuAqN4sdVZAUyinwHiwVOw37nmzMgXjGdpbYCKc8AaZRMRlQcsrYCe9xAe7Ugz9ZQ5E4/8fGjt5Krm2eN0HRYRI1BllRBYFSDKh+AAFOohUP9K4K3/nhSen0Pej/IVtXSVYnstKMYwVTIbYz47guczP+ozyka0277jtL+Yi04OKiSYL4RPQNFu/Q8rkWPZtasyG42StQi+P/cZ1iv1M6nDnX3f2HFGfu6rUYq43y+NJpIFmCb7is8uzIHlr35JN4BoC9Y/03yoxUZZqo+rGoLjFY4UcQU3yhVIz9hSL66MTRWrm2eN0HRYRI1BAN/EdNqc/C+c/mAFGorf+eGrnpP9Iz47zMsevEULHMTJbNI2kHxlHmV+nssG71jMd6/jnLZWzcLTh++WptA/VqzIbjipMBcuQlSrWWyJZRm6u8Ma3g7r0VzFPz8UC+lZA8tgGJbE8dQiMgmDgMDh4wiW4RN6AvgGR4vuuxz64Y+iQ7JTE9HOLWCn6n0D9vXTtfxN/05MDL8aAwl881KLbLBT/lNKXEjFJQGG2ldb58ZzMecAf4IWAiDLiITQoMTLI8EUg5iuTA70tCnlZMw5jWmKa3s4I0HZRmMKuknLk7EI2hg/Z2UusZ+h5XIrvaMTo8xwoaRG52PjgmZcBkDT/sA2BPBf+yTEGwKQQ+EXwWBQFBtYio8TfEjdGKV82tQRp9LLu/1IihT/iusT/8WKtg2iyUo+UknVPTGETvpRJ3Lq2Xg6no82MzW1AfMgMIy5rAA6IYPcLpz8h3Il2FmoQG0PszQbqov66PDmF2U8pPFCWaFhqGgiXOsU9jrEL4IMDzMlIhnyGy3E8efkQQ3XaASspQAc+eFKADnyrgMhMITy6s///dBP/s3v/+5V/EFbQWHW2JuzHDlNbRkj0x6ANkI87XK31fLqrv0aptWfAYqyzMJTY75zPVKpdM61sTCmCn/KaUuJGKSgr0TlbdxKRUROBiKqgJbL8AJdiyLlnCBpJpJmqDoC/LQwGrjA2UOyNSaFNTMhuSJMbNw1x7eJS/FBAvgbhNBX1X0BGSsowpHG/5mThB97+VUvxh89qtKLdYfVpRbrDU+dHcUBSCH74sGK/PmEignK+feFmndbdAUgglpghoOp/pGQwAerIL9qR4Y2QuJSxaSaMvYyuScxsbX7JiHNLtjhaqGbTcNW4WSOEzqAAstpT1aDBteMRC2zRB1JwY/cVUKK41dk3Nuae8Cjb/LBySiZWtVXYvEWAQCdchZIoxBy8MWzRyHLhDaYLDhlnh5LYArz7r7AFefctGHKa2jP248u7MogihPVq5Qws+YSHyruUrcJ73FAT36pzrjgOco6vHqjvigp/x3zWtzRR6Nk3gE6vYs6UUfCTxKbc1s+gjdJriLhEf8kyyWohI/m8GIAIRiyLlnCBpJpJmqDoC/LQwGriy2e0L03KKYa+5plr7moTlnwC5wdfABMSsowpHG/5mTePSW0I/WpVznlKADnzwpQAc+VcBkJhCdg8xLQgYGBDCgiLhrOQ83oD4xl9oQSAAyZKjvigp/xeCDy4YW49n1yv2SnBbXt6fuen6l+VgPkqSyT1pOtKq8M5T3/rOYa12yAHHoUVQwQKtvVyKh/zGaY1+RMDaGfaF6blE2uyG3vF5jT2Xnp5mThB98mpEH5Ysu/ytKMpkeYJCto2dXKMG+dI/FfnzCRQTlfPvCzTutugKT0vrYAKFyWJI+f4rEX4BsAmWH/4/chsyHMQ1rnhBuzYkUst4/gOmyi112lkTjbqL8hZWX9cWX4vTTSY/aAITpqc0C92EhycFl8QUQdtzY07oOgUZ3k8G3LLP6HG01Foc93RwqK6Wl3p78JuR5+l1MW8l0s/vR0iYkVSYaHz7Kx6H03XWOV9WPeSp3+LCzAGjSGPAAEn3GoStZLSLYXRGet70ujwwn/kvUPuI4RrY31YsLC1R5AQEFkX1k9lxIpYXJazFi/Q9vnCunipQp6xYeQ+paq8PswwLQL6H03XV9Lm++mo2cIQ/fFmizzgusxZ9IH7zjUWp0a6UgJSegAAYByMrbov2bUkl6UTgVQJid9z5ks3mpmMbHDDqQPCxOmonoppeokz0QZvla8fy6qAARa/EFYs61XmdQrh0QQeO/NTLFceBmP+knIHyJz45/9Y/9w0bBRzUtVeH2c1gW9/ptBUwKx7yVO/xY2w7lamgfJBGiicralNgQgpbxYs0LLhFiBaMNTsQTAAAC2Jbxatm/axrtJqfPOuUkyEug5YJwZlefADsVsOtbMM7GizrfHtD5nt+N5y/NynPRu4HS46euMQohWXbtAmBgXI4xGQPbi7ZkwRAD9CCL1Blz/esBtTt4eh+1SRaduUxzaBfQ+m66vpc3301GzhCH74s0WecF1mLPpA/L0ai1OjXSkBQMoAAACgecNHonq+54YORvFEGaABHHZ293uToHp1IZSrjFBQRZ4Eo7tQGfZg3LLyQX/wsWCOEqcqO4hYqlRo0hGhuCMcE1n7sSqlLZA0gok/bho2OK9KK8XyftCYHaUlD43WNNdnHRyeBvVU1jK142LSK3wN/ogFEQKI0lGyQtlFkurpBT0++Og7TUZxJtZccYViMG1PY6n57tH+Hma3BjUWp0a6Ud6nUIaw2AAAgmCfHV+NSUVAov++eyBwFSbKnVj8XmFEopZhMgP3/l1w6EbyKYkUJLRLEuXeiWbHGbEF2WVsd/WKAK4/3kOJ6jcmXHZrV5G2aIjEmEaCckReD/EZtAX/10NDY3jHM0PFTUCzfBCYNICr+xYREIoCwI5d1usFzoxh73pYREpfY0pLnWk4K+y92XlG9v1NsExNvYDSX6UPRE6rpO4fEL51FZxKQ5VzE8ZZIMEgHVVeYt3hJjT+YDMgSS81qB7JuKOxLZbNYBaZMknIRZRFgAAAApIBH//Blw6afDL8GWMdEO7YRjl9/AzOq/gBToOoD7nCB+/rOcMoyslp8QY0xTPRcTwwDogXpyCSFW2zePrWDuXRy5KYZ0MM4I40RIscCfLcantO9NgeyQJOnmK5JTHoufHK/Zw5bmIPFyiokiZsRWBzT7A3/G4clnBABIAAARVhJRroAAABFeGlmAABJSSoACAAAAAYAEgEDAAEAAAABAAAAGgEFAAEAAABWAAAAGwEFAAEAAABeAAAAKAEDAAEAAAACAAAAEwIDAAEAAAABAAAAaYcEAAEAAABmAAAAAAAAAEgAAAABAAAASAAAAAEAAAAGAACQBwAEAAAAMDIxMAGRBwAEAAAAAQIDAACgBwAEAAAAMDEwMAGgAwABAAAA//8AAAKgBAABAAAAXAMAAAOgBAABAAAAXAMAAAAAAAA=;" vertex="1" parent="1">
          <mxGeometry x="450" y="80" width="90" height="90" as="geometry" />
        </mxCell>
        <mxCell id="X58mp4_10XXgnkm5bK8M-5" value="users" style="sketch=0;outlineConnect=0;gradientColor=none;fontColor=#545B64;strokeColor=none;fillColor=#879196;dashed=0;verticalLabelPosition=bottom;verticalAlign=top;align=center;html=1;fontSize=12;fontStyle=0;aspect=fixed;shape=mxgraph.aws4.illustration_users;pointerEvents=1" vertex="1" parent="1">
          <mxGeometry y="303" width="100" height="100" as="geometry" />
        </mxCell>
        <mxCell id="X58mp4_10XXgnkm5bK8M-11" value="" style="html=1;shadow=0;dashed=0;align=center;verticalAlign=middle;shape=mxgraph.arrows2.arrow;dy=0.6;dx=40;notch=0;" vertex="1" parent="1">
          <mxGeometry x="130" y="324" width="100" height="70" as="geometry" />
        </mxCell>
        <mxCell id="X58mp4_10XXgnkm5bK8M-14" value="" style="html=1;shadow=0;dashed=0;align=center;verticalAlign=middle;shape=mxgraph.arrows2.bendArrow;dy=15;dx=38;notch=0;arrowHead=55;rounded=0;" vertex="1" parent="1">
          <mxGeometry x="290" y="130" width="100" height="100" as="geometry" />
        </mxCell>
        <mxCell id="X58mp4_10XXgnkm5bK8M-15" value="" style="html=1;shadow=0;dashed=0;align=center;verticalAlign=middle;shape=mxgraph.arrows2.bendArrow;dy=15;dx=38;notch=0;arrowHead=55;rounded=0;direction=south;" vertex="1" parent="1">
          <mxGeometry x="568" y="140" width="100" height="100" as="geometry" />
        </mxCell>
        <mxCell id="X58mp4_10XXgnkm5bK8M-16" value="&lt;font style=&quot;font-size: 24px;&quot;&gt;Dataset&lt;/font&gt;&lt;div&gt;&lt;br&gt;&lt;/div&gt;&lt;div&gt;&lt;font style=&quot;font-size: 16px;&quot;&gt;- Songs&lt;/font&gt;&lt;/div&gt;&lt;div&gt;&lt;font style=&quot;font-size: 16px;&quot;&gt;- Listening streams&lt;/font&gt;&lt;/div&gt;&lt;div&gt;&lt;font style=&quot;font-size: 16px;&quot;&gt;- Users&lt;/font&gt;&lt;/div&gt;" style="text;strokeColor=none;align=center;fillColor=none;html=1;verticalAlign=middle;whiteSpace=wrap;rounded=0;" vertex="1" parent="1">
          <mxGeometry x="260" y="490" width="360" height="130" as="geometry" />
        </mxCell>
      </root>
    </mxGraphModel>
  </diagram>
</mxfile>
